<svg height='100px' width='100px'  fill="#000000" xmlns:x="http://ns.adobe.com/Extensibility/1.0/" xmlns:i="http://ns.adobe.com/AdobeIllustrator/10.0/" xmlns:graph="http://ns.adobe.com/Graphs/1.0/" xmlns="http://www.w3.org/2000/svg" xmlns:xlink="http://www.w3.org/1999/xlink" version="1.1" x="0px" y="0px" viewBox="0 0 100 100" style="enable-background:new 0 0 100 100;" xml:space="preserve"><g><g i:extraneous="self"><g><path d="M97,80.5l-6.5-15.2V21.6c0-5.1-4.1-9.2-9.2-9.2H18.8c-5.1,0-9.2,4.1-9.2,9.2v43.7L3,80.5c-1.7,3.3,0.7,7.1,4.4,7.1h85.2     C96.3,87.6,98.6,83.8,97,80.5z M58.8,78.9H41.2c-1.3,0-2.4-1.1-2.4-2.4c0-1.3,1.1-2.4,2.4-2.4h17.5c1.3,0,2.4,1.1,2.4,2.4     C61.1,77.8,60,78.9,58.8,78.9z M82.1,62.4H17.9V21.6c0-0.5,0.4-0.8,0.8-0.8h62.5c0.5,0,0.8,0.4,0.8,0.8V62.4z"></path><path d="M75.1,34.4c-0.7-4.4-4.5-7.8-9.1-7.8c-1.1,0-2.1,0.2-3,0.5l3.9,7.3H75.1z"></path><path d="M64.7,36.6l-4.3-8c-2.2,1.7-3.7,4.3-3.7,7.3c0,5.1,4.2,9.3,9.3,9.3c4.6,0,8.4-3.4,9.1-7.8H66     C65.4,37.4,64.9,37.1,64.7,36.6z"></path><path d="M39,41.5c0.4-0.1,0.8-0.3,1-0.6l5.6-7.5l1.6,1.2c0.3,0.2,0.8,0.3,1.1,0.1c0.4-0.2,0.6-0.5,0.6-1l0.2-6.1     c0-0.4-0.2-0.7-0.4-0.9c-0.3-0.2-0.7-0.3-1-0.2l-5.8,2c-0.4,0.1-0.7,0.5-0.7,0.9c-0.1,0.4,0.1,0.8,0.4,1.1l1.6,1.2l-4.7,6.3     l-4.7-3.5c-0.3-0.2-0.7-0.3-1.1-0.3c-0.4,0.1-0.8,0.3-1,0.6l-6.5,8.8c-0.5,0.7-0.4,1.6,0.3,2.1c0.3,0.2,0.6,0.3,0.9,0.3     c0.5,0,0.9-0.2,1.2-0.6l5.6-7.6l4.7,3.5C38.2,41.5,38.6,41.6,39,41.5z"></path><path d="M30.1,48.8h-4.2c-0.6,0-1,0.5-1,1v5.9c0,0.6,0.5,1,1,1h4.2c0.6,0,1-0.5,1-1v-5.9C31.1,49.3,30.7,48.8,30.1,48.8z"></path><path d="M39.5,44.7h-4.2c-0.6,0-1,0.5-1,1v10.1c0,0.6,0.5,1,1,1h4.2c0.6,0,1-0.5,1-1V45.7C40.5,45.1,40.1,44.7,39.5,44.7z"></path><path d="M48.9,40.5h-4.2c-0.6,0-1,0.5-1,1v14.2c0,0.6,0.5,1,1,1h4.2c0.6,0,1-0.5,1-1V41.5C49.9,41,49.5,40.5,48.9,40.5z"></path><path d="M74.1,50.5H57.7c-0.6,0-1,0.5-1,1v4.2c0,0.6,0.5,1,1,1h16.3c0.6,0,1-0.5,1-1v-4.2C75.1,51,74.7,50.5,74.1,50.5z"></path></g></g></g></svg>