<svg height='100px' width='100px'  fill="#000000" xmlns="http://www.w3.org/2000/svg" xmlns:xlink="http://www.w3.org/1999/xlink" version="1.1" x="0px" y="0px" viewBox="0 0 24 24" enable-background="new 0 0 24 24" xml:space="preserve"><path fill-rule="evenodd" clip-rule="evenodd" d="M6.262,1.2h11.476c2.784,0,5.062,2.278,5.062,5.063v11.476  c0,2.784-2.277,5.062-5.062,5.062H6.262c-2.784,0-5.063-2.277-5.063-5.062V6.262C1.2,3.478,3.478,1.2,6.262,1.2L6.262,1.2z   M12,19.92c3.117-1.673,5.303-4.017,6.216-7.548c0.46-1.779,0.4-4.043,0.274-6.376c-0.02-0.361,0.095-0.92-0.914-0.652  c-1.813,0.483-3.532,0.239-5.012-0.999C12.335,4.151,12.164,4.08,12,4.08c-0.164,0-0.335,0.071-0.565,0.264  C9.956,5.583,8.237,5.827,6.423,5.343C5.415,5.075,5.529,5.634,5.509,5.995c-0.125,2.333-0.186,4.597,0.274,6.376  C6.697,15.903,8.883,18.247,12,19.92L12,19.92z M12,6.586C10.629,7.438,9.136,7.83,7.579,7.74c-0.049,1.423-0.007,2.901,0.299,4.09  c0.65,2.515,2.068,4.253,4.122,5.581V6.586z"></path></svg>